<svg width="102" height="77" viewBox="0 0 102 77" fill="none" xmlns="http://www.w3.org/2000/svg">
<path d="M0 62.5401C0 62.4051 0.0718315 62.3376 0.21549 62.3376H5.60269C8.69135 62.3376 10.1279 63.7889 10.1279 65.949C10.1279 67.5015 9.37372 68.379 8.43994 68.8515V68.8853C9.33781 69.2228 10.3793 70.3028 10.3793 71.9566C10.3793 74.6566 8.5836 75.9729 5.3872 75.9729H0.21549C0.0718315 75.9729 0 75.9054 0 75.7704V62.5401ZM5.53085 68.0415C6.82378 68.0415 7.61391 67.3327 7.61391 66.2527C7.61391 65.1727 6.82378 64.4639 5.53085 64.4639H2.62178C2.54995 64.4639 2.47811 64.4977 2.47811 64.5989V67.9402C2.47811 68.0077 2.51403 68.0753 2.62178 68.0753H5.53085V68.0415ZM2.62178 73.9141H5.63861C7.03928 73.9141 7.8294 73.1378 7.8294 72.0241C7.8294 70.9103 7.03928 70.134 5.63861 70.134H2.62178C2.54995 70.134 2.47811 70.1678 2.47811 70.269V73.8129C2.51402 73.8466 2.54995 73.9141 2.62178 73.9141Z" fill="black"/>
<path d="M12.8931 72.9012C12.6058 72.0574 12.498 71.3149 12.498 69.1548C12.498 66.9947 12.5699 66.2522 12.8931 65.4084C13.6473 63.2483 15.5149 62.1345 18.0289 62.1345C20.5429 62.1345 22.4105 63.2483 23.1647 65.4084C23.452 66.2522 23.5598 67.0284 23.5598 69.1548C23.5598 71.3149 23.4879 72.0574 23.1647 72.9012C22.4105 75.0612 20.5429 76.175 18.0289 76.175C15.5149 76.2088 13.6473 75.095 12.8931 72.9012ZM20.7225 72.2936C20.9021 71.7874 20.9739 71.0786 20.9739 69.1548C20.9739 67.1972 20.9021 66.5222 20.7225 66.0159C20.3274 64.9021 19.4655 64.2271 18.0289 64.2271C16.5923 64.2271 15.7304 64.9021 15.3353 66.0159C15.1557 66.5222 15.0839 67.1972 15.0839 69.1548C15.0839 71.0786 15.1557 71.7874 15.3353 72.2936C15.7304 73.4074 16.5923 74.0825 18.0289 74.0825C19.4655 74.0825 20.3274 73.4074 20.7225 72.2936Z" fill="black"/>
<path d="M34.5499 75.9729C34.3704 75.9729 34.2985 75.9054 34.2267 75.7704L31.4613 70.4715H28.9472C28.8754 70.4715 28.8036 70.5053 28.8036 70.6066V75.7704C28.8036 75.9054 28.7317 75.9729 28.5881 75.9729H26.505C26.3614 75.9729 26.2896 75.9054 26.2896 75.7704V62.5401C26.2896 62.4051 26.3614 62.3376 26.505 62.3376H32.1077C34.7654 62.3376 36.7407 63.9914 36.7407 66.4215C36.7407 68.2102 35.6633 69.594 33.9753 70.1678L37.028 75.7029C37.0999 75.8379 37.028 75.9729 36.8844 75.9729H34.5499ZM34.2626 66.4215C34.2626 65.2402 33.3647 64.4639 32.0359 64.4639H28.9472C28.8754 64.4639 28.8036 64.4977 28.8036 64.5989V68.2103C28.8036 68.2778 28.8395 68.3453 28.9472 68.3453H32.0359C33.3647 68.3453 34.2626 67.6027 34.2626 66.4215Z" fill="black"/>
<path d="M39.937 62.5401C39.937 62.4051 40.0088 62.3376 40.1525 62.3376H42.2356C42.3792 62.3376 42.451 62.4051 42.451 62.5401V73.7453C42.451 73.8128 42.487 73.8803 42.5947 73.8803H49.2389C49.3826 73.8803 49.4544 73.9478 49.4544 74.0828V75.8041C49.4544 75.9391 49.3826 76.0066 49.2389 76.0066H40.1525C40.0088 76.0066 39.937 75.9391 39.937 75.8041V62.5401Z" fill="black"/>
<path d="M55.4882 62.54C55.5242 62.405 55.6319 62.3375 55.7756 62.3375H57.7509C57.8945 62.3375 58.0023 62.405 58.0382 62.54L62.9585 75.7704C62.9944 75.9054 62.9585 75.9729 62.8148 75.9729H60.7318C60.5881 75.9729 60.4804 75.9054 60.4445 75.7704L59.4748 73.1378H54.0157L53.0101 75.7704C52.9742 75.9054 52.8665 75.9729 52.7228 75.9729H50.6398C50.4961 75.9729 50.4602 75.9054 50.4961 75.7704L55.4882 62.54ZM53.8003 60.5824C53.6566 60.5824 53.5848 60.5149 53.5848 60.3799V58.6249C53.5848 58.4899 53.6566 58.4224 53.8003 58.4224H55.3446C55.4882 58.4224 55.5601 58.4899 55.5601 58.6249V60.3799C55.5601 60.5149 55.4882 60.5824 55.3446 60.5824H53.8003ZM58.6846 71.0452L56.7812 65.7463H56.7093L54.7699 71.0452H58.6846ZM58.0741 60.5824C57.9304 60.5824 57.8586 60.5149 57.8586 60.3799V58.6249C57.8586 58.4899 57.9304 58.4224 58.0741 58.4224H59.6184C59.7621 58.4224 59.8339 58.4899 59.8339 58.6249V60.3799C59.8339 60.5149 59.7621 60.5824 59.6184 60.5824H58.0741Z" fill="black"/>
<path d="M64.8979 62.5401C64.8979 62.4051 64.9698 62.3376 65.1134 62.3376H67.0887C67.2683 62.3376 67.3761 62.4051 67.4479 62.5401L73.3379 71.9228H73.4097V62.5401C73.4097 62.4051 73.4815 62.3376 73.6252 62.3376H75.4928C75.6364 62.3376 75.7083 62.4051 75.7083 62.5401V75.7704C75.7083 75.9054 75.6364 75.9729 75.4928 75.9729H73.5534C73.3738 75.9729 73.2661 75.9054 73.1942 75.7704L67.2683 66.3877H67.1965V75.7704C67.1965 75.9054 67.1247 75.9729 66.981 75.9729H65.1134C64.9698 75.9729 64.8979 75.9054 64.8979 75.7704V62.5401Z" fill="black"/>
<path d="M78.4736 69.1548C78.4736 66.9947 78.5455 66.2522 78.8687 65.4084C79.6229 63.2483 81.4905 62.1345 84.0404 62.1345C86.734 62.1345 88.4938 63.4846 89.1044 65.0371C89.1403 65.1384 89.1403 65.2734 89.0326 65.3071L87.2368 66.0497C87.0932 66.0834 86.9854 66.0159 86.9495 65.9484C86.303 64.8684 85.4411 64.2608 84.0404 64.2608C82.5679 64.2608 81.706 64.9359 81.3109 66.0497C81.1313 66.5559 81.0595 67.231 81.0595 69.1885C81.0595 71.1124 81.1313 71.8211 81.3109 72.3274C81.706 73.4412 82.5679 74.1162 84.0404 74.1162C85.3334 74.1162 86.4108 73.5087 86.8058 72.4287C86.9495 72.0236 87.0573 71.4499 87.0573 70.6736C87.0573 70.6061 87.0214 70.5386 86.9136 70.5386H84.5073C84.3637 70.5386 84.2918 70.4711 84.2918 70.3361V68.6823C84.2918 68.5473 84.3637 68.4798 84.5073 68.4798H89.284C89.4276 68.4798 89.4995 68.5473 89.4995 68.6823V69.8636C89.4995 70.9774 89.3917 72.1586 89.1403 72.8337C88.422 74.96 86.5185 76.175 84.0045 76.175C81.4546 76.175 79.5511 75.0613 78.8328 72.9012C78.5814 72.0911 78.4736 71.3149 78.4736 69.1548Z" fill="black"/>
<path d="M92.3008 62.5401C92.3008 62.4051 92.3726 62.3376 92.5163 62.3376H101.603C101.746 62.3376 101.818 62.4051 101.818 62.5401V64.2614C101.818 64.3964 101.746 64.4639 101.603 64.4639H94.9585C94.8866 64.4639 94.8148 64.4977 94.8148 64.5989V67.9402C94.8148 68.0077 94.8507 68.0752 94.9585 68.0752H100.561C100.705 68.0752 100.777 68.1427 100.777 68.2777V69.999C100.777 70.134 100.705 70.2015 100.561 70.2015H94.9585C94.8866 70.2015 94.8148 70.2353 94.8148 70.3365V73.7453C94.8148 73.8128 94.8507 73.8803 94.9585 73.8803H101.603C101.746 73.8803 101.818 73.9478 101.818 74.0828V75.8041C101.818 75.9391 101.746 76.0066 101.603 76.0066H92.5163C92.3726 76.0066 92.3008 75.9391 92.3008 75.8041V62.5401Z" fill="black"/>
<path d="M50.8908 0C27.8695 0 26.7202 6.10885 26.7202 7.39137L27.6181 33.683C27.6181 46.3732 49.4901 52.9546 50.4239 53.2246L50.8908 53.3596L51.3577 53.2246C52.2915 52.9546 74.1635 46.3733 74.1635 33.7505L75.0613 7.35762C75.0613 6.10885 73.9121 0 50.8908 0ZM50.8908 51.6383C49.7056 51.2671 29.3779 44.8882 29.3779 33.7168L28.6955 13.7365C28.7674 13.804 28.8033 13.8377 28.8751 13.9052C30.4194 15.3565 31.6405 15.7615 32.6461 16.099C33.544 16.4028 34.2264 16.639 35.3038 17.6178C36.3813 18.6303 36.6327 19.2716 36.92 20.1153C37.2791 21.0603 37.7101 22.2416 39.2544 23.6591C40.7988 25.0767 42.0199 25.5154 43.0255 25.8529C43.9233 26.1567 44.6057 26.3929 45.6832 27.3717C46.7606 28.3842 47.012 29.0255 47.2993 29.8692C47.6585 30.8143 48.0894 31.9955 49.6338 33.413C51.1781 34.8643 52.3992 35.2693 53.4048 35.6068C54.3027 35.9106 54.9851 36.1468 56.0625 37.1256C57.1399 38.1381 57.3913 38.7794 57.6786 39.6231C58.0378 40.5682 58.4688 41.7494 60.0131 43.167C61.5574 44.6182 62.7785 45.0232 63.7841 45.3607C63.856 45.3945 63.9637 45.4282 64.0355 45.462C58.3251 49.2758 51.5732 51.4021 50.8908 51.6383ZM65.9749 44.1457C65.4721 43.8757 65.0052 43.7407 64.5384 43.572C63.6046 43.2682 62.7067 42.9644 61.5215 41.8507C60.3363 40.7369 60.0131 39.8932 59.6899 39.0156C59.3307 38.0706 58.9716 37.1256 57.5709 35.8093C56.1702 34.4931 55.1287 34.1556 54.159 33.8181C53.2252 33.5143 52.3274 33.2105 51.1422 32.0968C49.957 30.983 49.6338 30.1392 49.3105 29.2617C48.9514 28.3167 48.5922 27.3717 47.1916 26.0554C45.7909 24.7392 44.7494 24.4016 43.7797 24.0641C42.8459 23.7604 41.948 23.4566 40.7628 22.3429C39.5777 21.2291 39.2544 20.3853 38.9312 19.5078C38.5721 18.5628 38.2129 17.6178 36.8122 16.3015C35.4116 14.9852 34.406 14.6477 33.4003 14.3102C32.4666 14.0065 31.5687 13.7027 30.3835 12.589C29.2702 11.5427 28.9469 10.7664 28.6237 9.99016L28.5519 7.39137C28.5519 7.29012 28.6237 6.04135 31.1018 4.72508C31.6764 4.42132 32.4306 4.08382 33.3644 3.78006C33.5081 4.05007 33.5799 4.32007 33.6877 4.59008C34.0109 5.46759 34.37 6.41261 35.663 7.62763C36.9559 8.84265 37.9256 9.18015 38.8953 9.48391C39.865 9.82141 40.7988 10.1252 42.0917 11.3402C43.3846 12.5552 43.7438 13.4327 44.067 14.344C44.3902 15.2552 44.7494 16.1665 46.0423 17.3815C47.3352 18.5966 48.3049 18.9003 49.2746 19.2378C50.2443 19.5753 51.1781 19.8791 52.471 21.0941C53.7999 22.3429 54.1231 23.1866 54.4463 24.0979C54.7696 24.9754 55.1287 25.9204 56.4216 27.1354C57.7146 28.3505 58.6843 28.688 59.654 28.9917C60.6237 29.3292 61.5574 29.633 62.8504 30.848C64.1792 32.0968 64.5024 32.9405 64.8257 33.8855C65.1489 34.7631 65.508 35.7081 66.801 36.9231C68.0939 38.1381 69.0636 38.4756 70.0333 38.7794C70.2847 38.8806 70.5361 38.9481 70.8234 39.0494C69.6382 40.9057 67.9143 42.6269 65.9749 44.1457ZM72.4037 33.683C72.4037 34.9318 72.1523 36.1131 71.6854 37.2269C71.3262 37.0919 71.003 36.9906 70.7157 36.8893C69.8537 36.5856 69.2073 36.3831 68.2735 35.5056C67.3038 34.5943 67.0883 34.0205 66.801 33.2105C66.4418 32.2318 65.9749 31.0168 64.3229 29.4642C62.6708 27.9117 61.3779 27.5067 60.3363 27.1354C59.4744 26.8317 58.8279 26.6292 57.8941 25.7517C56.9244 24.8404 56.709 24.2666 56.4216 23.4566C56.0625 22.4779 55.5956 21.2628 53.9435 19.7103C52.2915 18.1578 50.9985 17.719 49.957 17.3815C49.095 17.0778 48.4486 16.8753 47.5148 15.9978C46.5451 15.0865 46.3296 14.5127 46.0423 13.7027C45.6832 12.724 45.2163 11.5089 43.5642 9.95641C41.9121 8.40389 40.6192 7.99888 39.5777 7.62763C38.7157 7.32387 38.0692 7.12137 37.1355 6.24385C36.1658 5.33259 35.9503 4.75883 35.663 3.94881C35.5911 3.71256 35.4834 3.47631 35.3756 3.2063C38.6439 2.39629 43.5642 1.75503 50.9626 1.75503C73.1219 1.75503 73.3734 7.35762 73.3734 7.42512L72.4037 33.683Z" fill="black"/>
<path d="M40.9426 34.2231L37.6026 38.982L37.423 38.9145C35.4477 38.0707 33.8315 36.5857 32.9337 34.6956L32.8618 34.5269L37.9258 31.3881L37.2075 30.7131L38.9314 29.6331L53.0458 42.897L51.6093 44.2471L40.9426 34.2231Z" fill="black"/>
<path d="M67.5552 12.4877V10.6315L65.4362 12.6227C65.9749 13.3653 66.2622 14.2765 66.2622 15.2553C66.2622 17.8878 63.9996 20.0479 61.1624 20.0479C58.3251 20.0479 56.0625 17.9216 56.0625 15.2553C56.0625 12.6227 58.3251 10.4627 61.1624 10.4627C62.2039 10.4627 63.1736 10.7665 63.9637 11.239L66.0467 9.28144H64.1433V7.35767H69.6023V12.4877H67.5552ZM64.2151 15.2215C64.2151 13.6353 62.8504 12.3527 61.1624 12.3527C59.4744 12.3527 58.1096 13.6353 58.1096 15.2215C58.1096 16.8078 59.4744 18.0903 61.1624 18.0903C62.8504 18.0903 64.2151 16.8078 64.2151 15.2215Z" fill="black"/>
</svg>
